<svg width="32" height="32" viewBox="0 0 32 32" fill="none" xmlns="http://www.w3.org/2000/svg">
<g id="ri:instagram-fill">
<rect width="32" height="32" rx="16" fill="black"/>
<path id="Vector" d="M16.9596 6.6679C17.6406 6.66528 18.3217 6.67213 19.0025 6.68843L19.1836 6.69496C19.3926 6.70243 19.5989 6.71176 19.8481 6.72296C20.8411 6.76963 21.5187 6.92642 22.1132 7.15695C22.7291 7.39401 23.248 7.71506 23.7669 8.23398C24.2414 8.70026 24.6086 9.26429 24.843 9.88685C25.0735 10.4814 25.2303 11.1599 25.277 12.1529C25.2882 12.4012 25.2975 12.6084 25.305 12.8174L25.3106 12.9985C25.3272 13.679 25.3343 14.3598 25.3321 15.0405L25.333 15.7368V16.9594C25.3353 17.6405 25.3281 18.3215 25.3115 19.0024L25.3059 19.1835C25.2985 19.3925 25.2891 19.5988 25.2779 19.848C25.2313 20.841 25.0726 21.5186 24.843 22.1131C24.6094 22.7363 24.2421 23.3008 23.7669 23.7669C23.3003 24.2413 22.736 24.6085 22.1132 24.843C21.5187 25.0735 20.8411 25.2303 19.8481 25.277C19.5989 25.2882 19.3926 25.2975 19.1836 25.305L19.0025 25.3106C18.3217 25.3272 17.6406 25.3343 16.9596 25.3321L16.2633 25.333H15.0417C14.3606 25.3353 13.6796 25.3281 12.9987 25.3115L12.8176 25.3059C12.5961 25.2979 12.3746 25.2886 12.1531 25.2779C11.1601 25.2313 10.4826 25.0726 9.88712 24.843C9.26432 24.6091 8.7002 24.2418 8.23427 23.7669C7.75927 23.3005 7.39173 22.7361 7.15726 22.1131C6.92674 21.5186 6.76995 20.841 6.72328 19.848C6.71289 19.6265 6.70356 19.405 6.69529 19.1835L6.69062 19.0024C6.67341 18.3216 6.66563 17.6405 6.66729 16.9594V15.0405C6.66468 14.3598 6.67153 13.679 6.68782 12.9985L6.69435 12.8174C6.70182 12.6084 6.71115 12.4012 6.72235 12.1529C6.76901 11.1589 6.92581 10.4823 7.15633 9.88685C7.39093 9.26399 7.7592 8.70011 8.23521 8.23491C8.70082 7.75963 9.26458 7.39174 9.88712 7.15695C10.4826 6.92642 11.1592 6.76963 12.1531 6.72296L12.8176 6.69496L12.9987 6.6903C13.6792 6.6731 14.36 6.66532 15.0407 6.66696L16.9596 6.6679ZM16.0001 11.3344C15.3818 11.3257 14.768 11.4399 14.1942 11.6705C13.6204 11.901 13.0982 12.2433 12.6579 12.6775C12.2176 13.1116 11.8679 13.629 11.6293 14.1994C11.3906 14.7699 11.2677 15.3821 11.2677 16.0004C11.2677 16.6188 11.3906 17.231 11.6293 17.8015C11.8679 18.3719 12.2176 18.8893 12.6579 19.3234C13.0982 19.7576 13.6204 20.0999 14.1942 20.3304C14.768 20.561 15.3818 20.6752 16.0001 20.6665C17.2378 20.6665 18.4247 20.1748 19.2998 19.2997C20.1749 18.4246 20.6666 17.2376 20.6666 16C20.6666 14.7623 20.1749 13.5754 19.2998 12.7003C18.4247 11.8251 17.2378 11.3344 16.0001 11.3344ZM16.0001 13.201C16.3721 13.1942 16.7416 13.2615 17.0872 13.3991C17.4328 13.5366 17.7476 13.7417 18.013 14.0023C18.2785 14.2629 18.4894 14.5737 18.6334 14.9167C18.7773 15.2597 18.8515 15.628 18.8516 16C18.8516 16.372 18.7776 16.7402 18.6337 17.0833C18.4899 17.4263 18.2791 17.7373 18.0137 17.9979C17.7483 18.2586 17.4337 18.4638 17.0881 18.6015C16.7425 18.7392 16.373 18.8066 16.0011 18.7999C15.2585 18.7999 14.5464 18.5049 14.0213 17.9798C13.4962 17.4547 13.2012 16.7426 13.2012 16C13.2012 15.2574 13.4962 14.5452 14.0213 14.0201C14.5464 13.4951 15.2585 13.2001 16.0011 13.2001L16.0001 13.201ZM20.8999 9.93445C20.5988 9.9465 20.3141 10.0746 20.1053 10.2919C19.8965 10.5092 19.7799 10.7988 19.7799 11.1001C19.7799 11.4015 19.8965 11.6911 20.1053 11.9084C20.3141 12.1257 20.5988 12.2538 20.8999 12.2658C21.2093 12.2658 21.506 12.1429 21.7248 11.9241C21.9436 11.7054 22.0665 11.4086 22.0665 11.0992C22.0665 10.7898 21.9436 10.4931 21.7248 10.2743C21.506 10.0555 21.2093 9.93259 20.8999 9.93259V9.93445Z" fill="white"/>
</g>
</svg>
