<svg width="32" height="32" viewBox="0 0 32 32" fill="none" xmlns="http://www.w3.org/2000/svg">
<g id="ri:linkedin-box-fill">
<rect width="32" height="32" rx="16" fill="black"/>
<path id="Vector" d="M24.448 24.4521H20.8947V18.8828C20.8947 17.5548 20.868 15.8454 19.0413 15.8454C17.1893 15.8454 16.9067 17.2908 16.9067 18.7854V24.4521H13.352V13.0001H16.7653V14.5601H16.812C17.2893 13.6614 18.4493 12.7108 20.1827 12.7108C23.7827 12.7108 24.4493 15.0814 24.4493 18.1654L24.448 24.4521ZM9.33866 11.4334C9.0674 11.4338 8.79874 11.3806 8.54808 11.2769C8.29742 11.1732 8.06969 11.0211 7.87794 10.8292C7.68619 10.6373 7.5342 10.4095 7.43068 10.1588C7.32715 9.90804 7.27414 9.63935 7.27466 9.36809C7.27493 8.95987 7.39624 8.56089 7.62325 8.22162C7.85026 7.88234 8.17279 7.618 8.55004 7.46202C8.92728 7.30605 9.34231 7.26544 9.74264 7.34534C10.143 7.42524 10.5106 7.62205 10.7991 7.9109C11.0875 8.19974 11.2839 8.56763 11.3633 8.96806C11.4426 9.36849 11.4015 9.78347 11.245 10.1605C11.0886 10.5376 10.8238 10.8597 10.4843 11.0863C10.1447 11.3129 9.74555 11.4337 9.33733 11.4334H9.33866ZM11.12 24.4521H7.556V13.0001H11.12V24.4521Z" fill="white"/>
</g>
</svg>
