<svg width="640" height="143" viewBox="0 0 640 143" fill="none" xmlns="http://www.w3.org/2000/svg">
<g clip-path="url(#clip0_3_655)">
<path d="M184.174 141.942L194.558 114.514H199.258L209.643 141.942H206.309L203.759 134.891H190.049L187.499 141.942H184.166H184.174ZM191.224 131.949H202.584L197.292 117.848H196.509L191.216 131.949H191.224Z" fill="black"/>
<path d="M256.631 141.942L256.24 138.025H256.04C255.44 138.784 254.641 139.503 253.65 140.183C251.587 141.622 249.317 142.341 246.831 142.341C243.146 142.341 240.036 141.022 237.51 138.384C234.976 135.746 233.713 132.365 233.713 128.24C233.713 124.115 234.976 120.733 237.51 118.095C240.044 115.457 243.154 114.138 246.831 114.138C249.597 114.138 252.099 114.922 254.337 116.489C256.568 118.055 258.118 120.15 258.982 122.756H255.648C254.865 121.005 253.674 119.622 252.083 118.599C250.492 117.584 248.741 117.072 246.831 117.072C244.033 117.072 241.675 118.111 239.74 120.19C237.806 122.268 236.838 124.946 236.838 128.24C236.838 131.533 237.806 134.211 239.74 136.29C241.675 138.368 244.033 139.407 246.831 139.407C249.261 139.407 251.403 138.544 253.258 136.825C255.113 135.099 256.04 133.156 256.04 130.99V130.598H247.814V127.856H259.174V141.958H256.623L256.631 141.942Z" fill="black"/>
<path d="M288.352 141.942V114.514H305.978V117.456H291.485V126.665H305.195V129.607H291.485V139.008H305.978V141.95H288.352V141.942Z" fill="black"/>
<path d="M334.085 141.942V114.514H339.377L351.72 138.216H352.503V114.514H355.637V141.942H350.345L338.002 118.239H337.219V141.942H334.085Z" fill="black"/>
<path d="M405.84 132.924H409.173C408.39 135.826 406.911 138.112 404.728 139.799C402.546 141.486 399.98 142.325 397.03 142.325C393.345 142.325 390.235 141.006 387.709 138.368C385.175 135.73 383.912 132.349 383.912 128.224C383.912 124.099 385.175 120.717 387.709 118.079C390.243 115.441 393.353 114.122 397.03 114.122C399.956 114.122 402.514 114.954 404.712 116.608C406.903 118.271 408.398 120.51 409.181 123.331H405.848C405.168 121.373 404.049 119.838 402.482 118.727C400.915 117.616 399.101 117.064 397.038 117.064C394.24 117.064 391.882 118.103 389.947 120.182C388.013 122.26 387.046 124.938 387.046 128.232C387.046 131.525 388.013 134.203 389.947 136.282C391.882 138.36 394.24 139.399 397.038 139.399C399.101 139.399 400.915 138.832 402.482 137.697C404.049 136.561 405.176 134.971 405.848 132.932L405.84 132.924Z" fill="black"/>
<path d="M442.7 141.942V131.557L432.707 114.514H436.041L443.875 128.032H444.658L452.492 114.514H455.826L445.833 131.557V141.942H442.7Z" fill="black"/>
<path d="M599.023 43.6153C599.183 43.4314 599.359 43.2555 599.51 43.0717C602.652 39.1946 602.916 34.4781 600.23 30.1614C599.35 28.7544 598.263 27.5233 597.056 26.3882C596.888 26.2283 596.728 26.0764 596.465 25.8286C598.695 26.1564 600.693 26.7479 602.628 27.5873C606.009 29.0582 608.879 31.1686 610.902 34.3102C612.844 37.324 613.556 40.6735 613.508 44.2148C613.476 46.7249 613.044 49.1711 612.405 51.5933C612.373 51.7132 612.341 51.8331 612.317 51.961C612.317 51.985 612.333 52.017 612.349 52.0969C613.036 51.8651 613.588 51.4494 614.059 50.9218C615.147 49.7067 615.674 48.2358 615.89 46.661C616.058 45.4219 616.098 44.1669 616.194 42.9278C616.178 42.9198 616.242 42.9358 616.266 42.9837C618.576 47.0367 619.32 50.69 617.969 55.8461C616.881 60.0989 613.444 65.5588 605.954 66.2223C601.101 66.4861 598.495 65.4629 595.513 63.7761C592.556 61.6178 590.485 58.8039 589.598 55.2066C589.158 53.4319 589.238 51.6812 589.87 49.9305C590.757 47.4844 592.004 45.27 593.731 43.3115C595.106 41.7527 596.137 39.986 596.545 37.9076C596.752 36.8284 596.76 35.7572 596.537 34.686C596.521 34.598 596.521 34.5101 596.561 34.4142C599.103 37.0042 599.462 40.1779 599.031 43.6153" fill="#DF4D44"/>
<path d="M20.5766 17.4109H0V1.05518H58.0285V17.4109H37.4519V74.9118H20.5686V17.4109H20.5766Z" fill="black"/>
<path d="M102.659 1.05518H126.929L152.254 74.9118H133.788L129.039 60.1389H100.549L95.8001 74.9118H77.334L102.659 1.05518ZM124.291 45.3659L115.849 18.9857H113.739L105.297 45.3659H124.291Z" fill="black"/>
<path d="M184.422 1.05518H220.299C233.489 1.05518 241.931 9.49684 241.931 21.6317C241.931 27.0117 239.924 30.9208 237.918 33.5588C236.758 35.1416 235.383 36.4047 234.016 37.4599V37.9875C235.703 39.1466 237.182 40.4177 238.445 42.0005C240.659 44.8463 242.986 48.7554 242.986 54.3432C242.986 66.4781 234.544 74.9198 221.354 74.9198H184.422V1.05518ZM217.661 30.601C221.882 30.601 225.047 27.4354 225.047 23.2146C225.047 18.9937 221.882 15.8281 217.661 15.8281H201.305V30.601H217.661ZM218.716 60.1469C222.937 60.1469 226.102 56.9812 226.102 52.7604C226.102 48.5396 222.937 45.3739 218.716 45.3739H201.305V60.1469H218.716Z" fill="black"/>
<path d="M296.785 1.05518H321.055L346.38 74.9118H327.914L323.166 60.1389H294.675L289.927 74.9118H271.46L296.785 1.05518ZM318.417 45.3659L309.976 18.9857H307.865L299.423 45.3659H318.417Z" fill="black"/>
<path d="M390.163 50.642C390.163 56.5495 394.912 61.194 403.881 61.194C412.85 61.194 416.544 57.5008 416.544 53.28C416.544 49.5868 414.009 46.9487 405.991 45.3659L394.384 43.2555C381.194 40.8253 374.863 34.3901 374.863 22.6789C374.863 10.0164 384.783 -0.00805664 402.826 -0.00805664C422.347 -0.00805664 432.899 10.544 432.899 25.3169H416.016C416.016 19.5133 411.164 14.7649 402.826 14.7649C395.335 14.7649 391.746 18.4581 391.746 22.6789C391.746 26.3722 393.857 28.2747 400.715 29.5378L412.323 31.6482C427.096 34.2862 433.427 40.6175 433.427 53.28C433.427 65.9425 423.402 75.967 403.881 75.967C384.36 75.967 373.28 64.8873 373.28 50.642H390.163Z" fill="black"/>
<path d="M536.182 46.9568C535.023 52.3368 533.016 57.1891 530.17 61.5139C525.422 68.7964 516.772 75.967 502.423 75.967C482.478 75.967 466.546 60.2428 466.546 37.9795C466.546 15.7162 482.478 0 502.415 0C516.661 0 525.102 7.0667 529.955 14.2453C532.8 18.4662 534.807 23.2146 536.182 28.4906H519.299C518.563 26.2763 517.508 24.2698 516.029 22.4791C513.495 19.4174 509.274 16.3557 502.415 16.3557C491.863 16.3557 483.421 24.7974 483.421 37.9875C483.421 51.1776 491.863 59.6193 502.415 59.6193C509.594 59.6193 513.807 56.5576 516.237 53.288C517.612 51.4974 518.667 49.387 519.299 46.9568H536.182Z" fill="black"/>
<path d="M568.254 37.9875C568.254 15.7242 584.186 0 604.131 0C624.076 0 640.008 15.7242 640.008 37.9875C640.008 60.2508 624.076 75.975 604.131 75.975C584.186 75.975 568.254 60.2508 568.254 37.9875ZM623.117 37.9875C623.117 24.7974 614.675 16.3557 604.123 16.3557C593.571 16.3557 585.129 24.7974 585.129 37.9875C585.129 51.1776 593.571 59.6193 604.123 59.6193C614.675 59.6193 623.117 51.1776 623.117 37.9875Z" fill="black"/>
</g>
<defs>
<clipPath id="clip0_3_655">
<rect width="640" height="142.333" fill="white"/>
</clipPath>
</defs>
</svg>
