<svg width="32" height="32" viewBox="0 0 32 32" fill="none" xmlns="http://www.w3.org/2000/svg">
<g id="ri:youtube-fill">
<rect width="32" height="32" rx="16" fill="black"/>
<path id="Vector" d="M16.2283 9.33325C16.7267 9.33575 17.9737 9.34659 19.2991 9.39409L19.7695 9.41242C21.1033 9.46826 22.4362 9.56493 23.098 9.72911C23.98 9.95079 24.6726 10.5958 24.9069 11.4142C25.2802 12.7143 25.3269 15.2495 25.3325 15.8637L25.3334 15.9903V16.1353C25.3269 16.7495 25.2802 19.2855 24.9069 20.5848C24.6698 21.4057 23.9763 22.0515 23.098 22.2699C22.4362 22.4341 21.1033 22.5307 19.7695 22.5866L19.2991 22.6057C17.9737 22.6524 16.7267 22.6641 16.2283 22.6657L16.0089 22.6666H15.7709C14.7162 22.6608 10.3051 22.6182 8.90126 22.2699C8.02015 22.0482 7.32665 21.4032 7.09237 20.5848C6.71902 19.2847 6.67235 16.7495 6.66675 16.1353V15.8637C6.67235 15.2495 6.71902 12.7135 7.09237 11.4142C7.32945 10.5933 8.02295 9.94746 8.90219 9.72994C10.3051 9.38075 14.7172 9.33825 15.7719 9.33325H16.2283ZM14.1329 13.0835V18.9172L19.7331 16.0003L14.1329 13.0835Z" fill="white"/>
</g>
</svg>
